<?xml version="1.0" standalone="no"?>
<!DOCTYPE svg PUBLIC "-//W3C//DTD SVG 20010904//EN"
 "http://www.w3.org/TR/2001/REC-SVG-20010904/DTD/svg10.dtd">
<svg version="1.0" xmlns="http://www.w3.org/2000/svg"
 width="351.000000pt" height="351.000000pt" viewBox="0 0 351.000000 351.000000"
 preserveAspectRatio="xMidYMid meet">
<metadata>
Created by potrace 1.14, written by Peter Selinger 2001-2017
</metadata>
<g transform="translate(0.000000,351.000000) scale(0.100000,-0.100000)"
fill="#000000" stroke="none">
<path d="M1678 3354 c-5 -5 -79 -13 -150 -16 -16 -1 -28 -4 -28 -8 0 -3 -10
-7 -22 -7 -45 -3 -84 -11 -111 -22 -16 -6 -34 -11 -42 -11 -8 0 -17 -5 -20
-10 -4 -6 -10 -8 -15 -5 -5 3 -11 1 -15 -4 -3 -5 -14 -8 -25 -6 -11 2 -20 0
-20 -5 0 -5 -18 -15 -40 -21 -22 -7 -40 -16 -40 -21 0 -4 -3 -7 -7 -6 -13 3
-103 -42 -103 -52 0 -5 -6 -7 -12 -5 -7 3 -29 -8 -48 -25 -19 -16 -36 -27 -38
-25 -2 2 -13 -5 -25 -16 -11 -10 -27 -19 -34 -19 -8 0 -11 -4 -8 -10 3 -5 0
-10 -7 -10 -19 0 -88 -69 -88 -87 0 -17 179 -200 201 -204 13 -3 37 13 78 51
25 24 115 80 125 79 5 0 12 5 17 13 5 7 12 13 16 14 4 0 37 14 73 31 90 42
164 65 203 65 9 -1 17 4 17 9 0 6 4 7 10 4 5 -3 19 -1 30 5 14 8 20 8 20 0 0
-6 4 -8 10 -5 21 13 60 16 190 15 160 -1 180 -2 180 -9 0 -4 17 -7 38 -9 65
-5 77 -7 82 -14 3 -4 17 -9 30 -11 59 -10 90 -20 90 -28 0 -5 7 -9 15 -9 9 0
35 -10 58 -22 23 -12 45 -21 50 -20 4 1 7 -2 7 -8 0 -5 7 -10 15 -10 8 0 15
-5 15 -12 0 -6 3 -9 6 -5 7 6 56 -28 105 -73 47 -42 57 -49 63 -43 3 4 6 1 6
-5 0 -7 47 35 104 94 112 113 115 119 67 162 -37 33 -150 112 -161 112 -4 0
-10 4 -12 9 -3 8 -179 101 -192 101 -2 0 -17 5 -33 12 -15 6 -30 12 -33 13 -3
1 -12 4 -20 8 -26 10 -105 31 -112 29 -5 -1 -8 3 -8 9 0 5 -4 8 -8 5 -5 -3
-24 -1 -43 4 -31 8 -104 19 -169 26 -14 1 -26 3 -27 4 -8 5 -164 2 -170 -3 -3
-4 -11 -2 -18 3 -7 5 -14 7 -17 4z"/>
<path d="M2764 2776 c-54 -56 -116 -122 -138 -147 -64 -73 -149 -169 -178
-201 -16 -17 -28 -34 -28 -40 0 -5 -4 -6 -10 -3 -5 3 -10 3 -10 -2 0 -4 -21
-31 -47 -59 -27 -29 -69 -76 -94 -105 -26 -30 -59 -67 -74 -84 -134 -148 -175
-193 -204 -221 -19 -19 -32 -34 -29 -34 3 0 -15 -22 -41 -48 -25 -27 -70 -74
-99 -106 -34 -37 -58 -56 -67 -52 -8 3 -15 9 -15 14 0 4 -27 36 -60 71 -33 35
-60 68 -60 73 0 5 -4 6 -10 3 -5 -3 -10 -2 -10 3 0 8 -49 66 -137 159 -24 25
-43 50 -43 55 0 5 -4 6 -10 3 -5 -3 -10 -2 -10 3 0 5 -22 33 -49 61 -27 28
-46 51 -43 51 2 0 -7 12 -22 26 -14 15 -26 31 -26 36 0 5 -4 6 -10 3 -5 -3
-10 0 -10 9 0 8 -13 26 -30 39 -16 14 -30 29 -30 34 0 4 -16 23 -35 40 -19 18
-35 35 -35 39 0 6 -29 38 -151 166 -25 26 -43 48 -41 48 3 0 -15 21 -40 48
-157 161 -209 212 -217 212 -5 0 -17 -7 -25 -16 -9 -8 -16 -12 -16 -8 0 4 -10
-6 -22 -22 -13 -16 -27 -34 -33 -41 -5 -7 -16 -19 -23 -28 -7 -8 -10 -15 -7
-15 3 0 0 -10 -7 -22 -9 -17 -13 -93 -13 -269 -1 -135 -5 -251 -9 -257 -4 -7
-4 -12 1 -12 6 0 8 -469 3 -720 0 -8 1 -136 3 -285 3 -212 7 -275 18 -295 32
-56 75 -110 92 -115 9 -4 17 -13 17 -21 0 -21 14 -17 51 16 19 16 38 30 42 30
5 0 6 4 2 9 -3 5 4 12 15 16 11 3 20 10 20 15 0 5 20 28 45 51 l44 42 -2 578
c-1 379 1 580 8 583 6 3 6 5 0 5 -7 1 -9 16 -7 38 l5 36 58 -63 c33 -34 59
-64 59 -65 0 -2 122 -132 226 -241 34 -35 60 -64 58 -64 -2 0 42 -46 96 -101
55 -56 100 -106 100 -111 0 -5 5 -6 10 -3 6 3 10 1 10 -5 0 -10 20 -33 180
-200 36 -37 72 -77 80 -89 8 -11 19 -21 25 -21 13 0 131 121 127 132 -1 4 2 7
6 6 4 -2 35 26 67 61 33 35 80 85 105 111 25 26 77 83 115 125 39 43 94 102
123 131 29 30 51 54 48 54 -3 0 24 30 61 68 36 37 72 77 80 89 8 13 19 20 24
17 5 -3 9 0 9 7 0 6 19 31 43 54 23 24 53 55 66 69 27 30 37 33 39 9 0 -10 1
-286 1 -614 l1 -596 40 -39 c23 -21 65 -63 95 -91 29 -29 60 -53 68 -53 17 0
80 71 115 129 24 42 26 53 27 176 1 72 5 136 9 143 4 7 4 12 -1 12 -10 0 -10
91 0 108 5 6 5 12 0 12 -12 0 -11 1333 2 1342 7 5 7 8 0 8 -6 0 -12 11 -13 24
-2 28 -40 96 -53 96 -5 0 -9 5 -9 10 0 12 -27 40 -61 62 l-26 17 -99 -103z"/>
<path d="M877 761 c-53 -54 -97 -95 -97 -92 0 3 -5 -1 -10 -10 -5 -8 -7 -24
-4 -35 6 -20 117 -111 194 -159 25 -15 48 -32 51 -37 3 -5 9 -9 13 -9 12 2 74
-27 80 -38 4 -6 12 -9 17 -6 5 4 9 1 9 -4 0 -6 9 -11 20 -11 11 0 20 -4 20 -8
0 -5 6 -9 14 -9 7 0 35 -10 60 -22 26 -12 51 -19 56 -16 6 4 10 1 10 -4 0 -6
3 -10 8 -9 4 0 14 -1 22 -5 8 -3 33 -9 55 -13 22 -4 47 -9 55 -11 49 -13 161
-26 232 -27 32 -1 58 -5 58 -9 0 -5 5 -5 10 -2 6 4 45 8 88 10 99 5 217 18
217 25 0 1 11 3 25 6 26 4 104 22 130 31 8 2 17 4 20 5 3 0 13 4 23 10 10 5
28 11 40 14 12 2 23 8 25 14 2 6 8 8 12 5 5 -3 33 7 62 22 29 15 56 26 61 25
4 -1 7 3 7 8 0 6 6 10 13 10 7 0 24 10 37 23 14 12 26 21 27 19 6 -4 113 71
113 79 0 5 6 9 13 9 7 0 23 11 35 25 12 14 26 25 32 25 5 0 10 7 10 15 0 8 4
15 9 15 13 0 7 33 -7 38 -7 2 -10 8 -6 13 3 5 1 9 -3 9 -5 0 -48 38 -96 85
-55 54 -92 83 -100 79 -6 -4 -28 -22 -47 -40 -109 -102 -323 -209 -460 -229
-24 -4 -48 -9 -52 -12 -5 -2 -30 -6 -56 -8 -26 -2 -47 -4 -47 -5 0 -7 -47 -5
-51 2 -3 4 -10 5 -16 2 -17 -11 -138 -11 -138 -1 0 5 -6 5 -13 -2 -8 -6 -17
-7 -23 -2 -5 5 -31 11 -59 14 -27 3 -65 10 -83 16 -18 5 -36 10 -40 10 -43 4
-242 90 -274 119 -10 8 -18 12 -18 8 0 -4 -6 -1 -14 6 -8 7 -26 22 -42 33 -15
11 -38 29 -50 40 -40 36 -74 65 -77 65 -2 0 -47 -44 -100 -99z"/>
</g>
</svg>
